<svg width="34" height="34" viewBox="0 0 34 34" fill="none" xmlns="http://www.w3.org/2000/svg">
<circle cx="17" cy="17" r="16" stroke="white" stroke-width="2"/>
<path fill-rule="evenodd" clip-rule="evenodd" d="M12.8429 6.97725C13.9182 6.92775 14.261 6.91675 17 6.91675C19.739 6.91675 20.0818 6.92866 21.1562 6.97725C22.2305 7.02583 22.9638 7.19725 23.6055 7.44566C24.2774 7.69958 24.887 8.0965 25.3912 8.60983C25.9045 9.11308 26.3005 9.72175 26.5535 10.3946C26.8028 11.0362 26.9733 11.7696 27.0228 12.8421C27.0723 13.9192 27.0833 14.262 27.0833 17.0001C27.0833 19.7391 27.0714 20.0819 27.0228 21.1572C26.9742 22.2297 26.8028 22.963 26.5535 23.6047C26.3005 24.2776 25.9038 24.8873 25.3912 25.3912C24.887 25.9046 24.2774 26.3006 23.6055 26.5536C22.9638 26.8029 22.2305 26.9734 21.158 27.0229C20.0818 27.0724 19.739 27.0834 17 27.0834C14.261 27.0834 13.9182 27.0715 12.8429 27.0229C11.7704 26.9743 11.0371 26.8029 10.3954 26.5536C9.72251 26.3006 9.11283 25.9039 8.60883 25.3912C8.09585 24.8877 7.69887 24.2783 7.44558 23.6056C7.19716 22.9639 7.02666 22.2306 6.97716 21.1581C6.92766 20.081 6.91666 19.7382 6.91666 17.0001C6.91666 14.2611 6.92858 13.9182 6.97716 12.8439C7.02575 11.7696 7.19716 11.0362 7.44558 10.3946C7.69924 9.72182 8.09652 9.11245 8.60975 8.60891C9.11303 8.09604 9.7221 7.69907 10.3945 7.44566C11.0362 7.19725 11.7695 7.02675 12.842 6.97725H12.8429ZM21.0746 8.79225C20.0112 8.74366 19.6922 8.73358 17 8.73358C14.3077 8.73358 13.9887 8.74366 12.9254 8.79225C11.9418 8.83716 11.4083 9.00125 11.0527 9.13966C10.5824 9.323 10.246 9.54025 9.89308 9.89317C9.55854 10.2186 9.30108 10.6148 9.13958 11.0527C9.00116 11.4084 8.83708 11.9419 8.79216 12.9255C8.74358 13.9888 8.7335 14.3078 8.7335 17.0001C8.7335 19.6923 8.74358 20.0113 8.79216 21.0747C8.83708 22.0582 9.00116 22.5918 9.13958 22.9474C9.30091 23.3847 9.5585 23.7816 9.89308 24.107C10.2185 24.4416 10.6154 24.6992 11.0527 24.8605C11.4083 24.9989 11.9418 25.163 12.9254 25.2079C13.9887 25.2565 14.3068 25.2666 17 25.2666C19.6932 25.2666 20.0112 25.2565 21.0746 25.2079C22.0582 25.163 22.5917 24.9989 22.9473 24.8605C23.4176 24.6772 23.754 24.4599 24.1069 24.107C24.4415 23.7816 24.6991 23.3847 24.8604 22.9474C24.9988 22.5918 25.1629 22.0582 25.2078 21.0747C25.2564 20.0113 25.2665 19.6923 25.2665 17.0001C25.2665 14.3078 25.2564 13.9888 25.2078 12.9255C25.1629 11.9419 24.9988 11.4084 24.8604 11.0527C24.6771 10.5825 24.4598 10.2461 24.1069 9.89317C23.7814 9.55865 23.3852 9.30119 22.9473 9.13966C22.5917 9.00125 22.0582 8.83716 21.0746 8.79225ZM15.7121 20.1085C16.4314 20.4079 17.2323 20.4483 17.978 20.2228C18.7238 19.9973 19.3681 19.5199 19.801 18.8721C20.2338 18.2244 20.4284 17.4464 20.3514 16.6711C20.2744 15.8958 19.9306 15.1713 19.3787 14.6213C19.027 14.2698 18.6016 14.0006 18.1333 13.8331C17.665 13.6657 17.1654 13.6042 16.6705 13.653C16.1755 13.7018 15.6976 13.8597 15.271 14.1155C14.8444 14.3712 14.4798 14.7183 14.2035 15.1318C13.9272 15.5453 13.746 16.0149 13.673 16.5069C13.5999 16.9988 13.6369 17.5009 13.7812 17.9768C13.9254 18.4528 14.1734 18.8908 14.5073 19.2594C14.8412 19.628 15.2527 19.918 15.7121 20.1085ZM13.3352 13.3352C13.8164 12.854 14.3878 12.4722 15.0166 12.2117C15.6454 11.9513 16.3194 11.8172 17 11.8172C17.6806 11.8172 18.3546 11.9513 18.9834 12.2117C19.6122 12.4722 20.1836 12.854 20.6648 13.3352C21.1461 13.8165 21.5279 14.3879 21.7883 15.0167C22.0488 15.6455 22.1829 16.3195 22.1829 17.0001C22.1829 17.6807 22.0488 18.3547 21.7883 18.9835C21.5279 19.6123 21.1461 20.1836 20.6648 20.6649C19.6929 21.6369 18.3746 22.1829 17 22.1829C15.6254 22.1829 14.3071 21.6369 13.3352 20.6649C12.3632 19.6929 11.8171 18.3747 11.8171 17.0001C11.8171 15.6255 12.3632 14.3072 13.3352 13.3352ZM23.3323 12.5891C23.4516 12.4766 23.5471 12.3413 23.6131 12.1912C23.6791 12.0412 23.7144 11.8794 23.7168 11.7154C23.7192 11.5515 23.6887 11.3888 23.627 11.2368C23.5654 11.0849 23.4739 10.9469 23.358 10.831C23.242 10.715 23.104 10.6235 22.9521 10.5619C22.8002 10.5003 22.6374 10.4697 22.4735 10.4721C22.3095 10.4745 22.1478 10.5098 21.9977 10.5758C21.8476 10.6418 21.7123 10.7373 21.5998 10.8566C21.381 11.0885 21.2612 11.3966 21.2659 11.7154C21.2705 12.0343 21.3993 12.3387 21.6247 12.5642C21.8502 12.7897 22.1547 12.9184 22.4735 12.923C22.7923 12.9277 23.1004 12.8079 23.3323 12.5891Z" fill="white"/>
</svg>
