<svg width="34" height="34" viewBox="0 0 34 34" fill="none" xmlns="http://www.w3.org/2000/svg">
<circle cx="17" cy="17" r="16" stroke="white" stroke-width="2"/>
<path d="M18.4583 25.125H14.625V13.625H18.4583V15.5417C18.8619 15.0283 19.3741 14.6105 19.9581 14.3184C20.5421 14.0263 21.1836 13.8671 21.8365 13.8521C22.9782 13.8585 24.0708 14.3173 24.8748 15.1281C25.6787 15.9388 26.1283 17.0353 26.125 18.1771V25.125H22.2917V18.6562C22.2175 18.1383 21.9588 17.6646 21.5631 17.3223C21.1675 16.98 20.6615 16.7921 20.1383 16.7932C19.9041 16.8007 19.6739 16.8553 19.4613 16.9539C19.2488 17.0524 19.0584 17.1929 18.9015 17.3669C18.7446 17.5409 18.6245 17.7448 18.5483 17.9664C18.4722 18.1879 18.4416 18.4226 18.4583 18.6562V25.125ZM12.7083 25.125H8.875V13.625H12.7083V25.125ZM10.7917 11.7083C10.2833 11.7083 9.79582 11.5064 9.43638 11.147C9.07693 10.7875 8.875 10.3 8.875 9.79167C8.875 9.28333 9.07693 8.79582 9.43638 8.43638C9.79582 8.07693 10.2833 7.875 10.7917 7.875C11.3 7.875 11.7875 8.07693 12.147 8.43638C12.5064 8.79582 12.7083 9.28333 12.7083 9.79167C12.7083 10.3 12.5064 10.7875 12.147 11.147C11.7875 11.5064 11.3 11.7083 10.7917 11.7083Z" fill="white"/>
</svg>
